PathFileType	4	(X/Y/Z)	/Users/visionmauri/Downloads/Videos/OAW03-top_Sports2D/OAW03-top_Sports2D_px_person00.trc
DataRate	CameraRate	NumFrames	NumMarkers	Units	OrigDataRate	OrigDataStartFrame	OrigNumFrames
30.0	30.0	5	22	m	30.0	536	2146
Frame#	Time	Hip			RHip			RKnee			RAnkle			RBigToe			RSmallToe			RHeel			LHip			LKnee			LAnkle			LBigToe			LSmallToe			LHeel			Neck			Head			Nose			RShoulder			RElbow			RWrist			LShoulder			LElbow			LWrist			
		X1	Y1	Z1	X2	Y2	Z2	X3	Y3	Z3	X4	Y4	Z4	X5	Y5	Z5	X6	Y6	Z6	X7	Y7	Z7	X8	Y8	Z8	X9	Y9	Z9	X10	Y10	Z10	X11	Y11	Z11	X12	Y12	Z12	X13	Y13	Z13	X14	Y14	Z14	X15	Y15	Z15	X16	Y16	Z16	X17	Y17	Z17	X18	Y18	Z18	X19	Y19	Z19	X20	Y20	Z20	X21	Y21	Z21	X22	Y22	Z22
536	17.874996114996115	532.4963803161422	909.3282700626305	0.0	574.3880012959928	908.7460090757702	0.0	576.6060378644669	1008.5360377087352	0.0	570.5880744539547	1104.913752619004	0.0	563.0443296008131	1123.272106121173	0.0	582.4748928596102	1118.0351893979123	0.0	565.792740900231	1123.4614901270477	0.0	491.9824141006328	903.8962552940455	0.0	501.57035847563463	1052.0910399771487	0.0	511.62688946518296	1194.171090416157	0.0	519.9568429479573	1236.2257733512117	0.0	497.88809928329664	1241.170521321179	0.0	511.756005656498	1227.0359928097964	0.0	553.5785831220567	697.8978754673303	0.0	542.6506992482565	598.0006595070321	0.0	549.4726010010688	659.9016198567829	0.0	624.0204545677506	728.3257567837684	0.0	640.8883681352784	846.4451922916658	0.0	653.9421982775538	943.5584851033976	0.0	484.62230453133145	716.7861445781609	0.0	453.1537608746951	821.1736709465922	0.0	466.0042676072746	881.1168529515109	0.0
537	17.90834498834499	534.0052707989659	905.284151069059	0.0	574.6022144921536	904.7094493784974	0.0	576.3709512600427	1007.1173367408137	0.0	569.6970790386689	1106.1871139710818	0.0	562.7409647359277	1123.041332995781	0.0	582.8642586736263	1120.0988594145367	0.0	564.5662842722692	1128.3671605905047	0.0	494.2521075425661	898.9488555067685	0.0	502.2494594814059	1044.8607042992164	0.0	509.4140072636633	1183.4827879218917	0.0	519.2534426642184	1228.2770389897782	0.0	496.3989867362501	1232.6568255949608	0.0	509.1682503918675	1216.5814070204317	0.0	557.2500960214909	695.8301085587843	0.0	546.8735737192534	597.9332977955846	0.0	553.664775500771	660.8985879933088	0.0	626.0773604997203	727.7658926974648	0.0	642.2754006038011	844.562658462942	0.0	654.4649926612694	941.1957744562457	0.0	488.8825914462492	714.6060511048503	0.0	456.53246636519356	817.756887353688	0.0	468.7607167432713	873.9748429274906	0.0
538	17.94169386169386	535.4054143930663	899.9596925925975	0.0	574.8056351026851	899.3314541948592	0.0	577.687098527926	1007.2125420659762	0.0	567.7061663840539	1107.6322003490618	0.0	563.5212572003146	1128.0745042735052	0.0	584.7425811059418	1127.368419627502	0.0	561.8704863161382	1135.4904089724341	0.0	496.1311366807009	893.0808016982633	0.0	503.13484652892174	1037.2156964787462	0.0	507.1082955401742	1169.8910262095146	0.0	518.8131904983618	1219.0650024225363	0.0	493.63818469454503	1221.785068722494	0.0	505.52714483958084	1202.8527322291343	0.0	561.3163345560714	693.3867333766	0.0	552.789656200566	598.1669255918574	0.0	559.458196692734	661.7280478167212	0.0	628.2588072376847	725.8244093474239	0.0	643.8170026812804	840.9987354435418	0.0	654.2995957963637	936.391596823861	0.0	493.697988988608	710.3992573808447	0.0	459.37223492856714	811.8452391379757	0.0	468.6664270558398	870.522386791318	0.0
539	17.975042735042734	537.7417647927741	892.8742398754665	0.0	576.7316794953566	892.3175334707659	0.0	580.279544111749	1007.7819312759808	0.0	565.8254679638185	1109.7241304438285	0.0	562.4191898709599	1136.387671106205	0.0	584.4017574809413	1137.2568745998537	0.0	559.2575857389596	1140.521158360158	0.0	498.92819472379296	885.8675072032015	0.0	503.83449943811087	1028.0416080103716	0.0	505.6043078889376	1153.6110528566182	0.0	517.7158008016866	1206.827281960679	0.0	489.7389434233025	1207.3833289011054	0.0	503.5122416915331	1186.9359595304259	0.0	565.3251984302469	691.5654011259426	0.0	560.2125881866401	597.9360020367337	0.0	567.4160584482318	661.5612950499905	0.0	630.3254716037006	722.6521896266764	0.0	645.0437617866851	835.8788380642418	0.0	653.21680295466	928.6846000375735	0.0	497.43586414514033	704.9799376451522	0.0	462.00271880691554	805.0366425257658	0.0	468.2536027890848	868.7060229585763	0.0
540	18.00839160839161	541.6757240374197	885.8063590881947	0.0	580.3367966168358	885.0988904192973	0.0	582.4432635752387	1006.7877192901796	0.0	565.4624015603513	1110.686925136315	0.0	558.9681058038046	1142.9586913537764	0.0	581.7118688032285	1145.0996042492202	0.0	558.7083118637344	1140.6228181311565	0.0	503.2130580800459	879.252094681234	0.0	505.1282684378179	1016.4155151242136	0.0	505.47860957327197	1135.1054724912574	0.0	516.3775947949049	1189.0863482527932	0.0	486.1096491469108	1188.2991951280312	0.0	504.1801401379475	1169.3410869210675	0.0	568.1642080233381	689.1608204064235	0.0	565.4445904076907	596.5304735806513	0.0	575.0047000379843	659.0354245325543	0.0	631.5316595828637	718.9775874947145	0.0	645.7896439514333	829.9699177609722	0.0	652.0948778780007	919.0591385607418	0.0	498.991257959373	700.095345647087	0.0	463.93077546346956	799.0741649355563	0.0	467.89636671811587	867.618470196936	0.0
